<?xml version="1.0" encoding="iso-8859-1"?>
<!-- Uploaded to: SVG Repo, www.svgrepo.com, Generator: SVG Repo Mixer Tools -->
<svg height="800px" width="800px" version="1.1" id="Layer_1" xmlns="http://www.w3.org/2000/svg" xmlns:xlink="http://www.w3.org/1999/xlink" 
	 viewBox="0 0 511.936 511.936" xml:space="preserve">
<g>
	<g>
		<path style="fill:#00A1C6;" d="M13.592,338.107c2.428,24.505,25.485,63.011,61.352,98.878
			c35.875,35.866,74.381,58.933,98.887,61.361c-12.209-36.105-32.653-70.038-61.431-98.807
			C83.63,370.761,49.697,350.316,13.592,338.107"/>
		<path style="fill:#00A1C6;" d="M338.179,13.521c2.428,24.505,25.485,63.011,61.352,98.878s74.381,58.933,98.887,61.361
			c-12.217-36.105-32.653-70.038-61.431-98.807C408.208,46.175,374.284,25.73,338.179,13.521"/>
	</g>
	<path style="fill:#FFD80F;" d="M498.414,173.757c-14.627-1.448-34.251-10.293-55.314-24.779
		c-5.111,164.043-135.618,294.735-294.321,296.386c10.478,16.843,18.838,34.622,25.044,52.983c-0.168-0.018-0.362-0.062-0.538-0.088
		c89.441,30.455,192.371,10.055,263.698-61.272c71.177-71.177,91.648-173.815,61.466-263.124L498.414,173.757z"/>
	<path style="fill:#31BCEC;" d="M443.098,148.978c-14.23-9.781-29.105-22.113-43.564-36.573L112.399,399.54
		c14.142,14.142,26.253,29.546,36.387,45.824C307.48,443.714,437.987,313.021,443.098,148.978"/>
	<path style="fill:#FFD80F;" d="M66.567,363.152c16.287,10.134,31.691,22.237,45.833,36.387l287.135-287.135
		c-14.46-14.46-26.792-29.343-36.573-43.564C198.911,73.952,68.227,204.459,66.567,363.152"/>
	<path style="fill:#31BCEC;" d="M338.068,13.481C248.759-16.692,146.121,3.779,74.944,74.947
		C3.626,146.274-16.775,249.204,13.672,338.654c-0.018-0.177-0.062-0.371-0.079-0.547c18.353,6.206,36.14,14.566,52.974,25.044
		C68.226,204.457,198.91,73.95,362.962,68.839c-14.486-21.063-23.331-40.695-24.779-55.314L338.068,13.481z"/>
	<path style="fill:#D1D4D1;" d="M424.501,96.262c2.26,0,4.52-0.865,6.241-2.586l12.306-12.306c-2.013-2.145-3.964-4.326-6.065-6.418
		c-2.092-2.101-4.273-4.052-6.418-6.065L418.26,81.193c-3.452,3.452-3.452,9.031,0,12.482
		C419.982,95.396,422.241,96.262,424.501,96.262"/>
</g>
</svg>